<svg width="80" height="74" viewBox="0 0 80 74" fill="none" xmlns="http://www.w3.org/2000/svg">
<path d="M21.5037 43.9375H58.5037C59.2435 43.9375 59.9387 44.2915 60.3739 44.8899L78.8739 70.3274C79.9855 71.8559 78.8936 74 77.0037 74H3.00365C1.11368 74 0.021798 71.8559 1.13343 70.3274L19.6334 44.8899C20.0686 44.2915 20.7638 43.9375 21.5037 43.9375ZM29.1563 69.375H50.851L48.0129 58.9688H31.9944L29.1563 69.375ZM57.3261 48.5625H49.9688L51.5455 54.3438H61.5306L57.3261 48.5625ZM45.1749 48.5625H34.8324L33.2557 54.3438H46.7516L45.1749 48.5625ZM30.0385 48.5625H22.6812L18.4767 54.3438H28.4618L30.0385 48.5625ZM55.6449 69.375H72.4624L64.8942 58.9688H52.8069L55.6449 69.375ZM15.1131 58.9688L7.54489 69.375H24.3624L27.2004 58.9688H15.1131ZM60.8162 37C60.8162 38.2772 59.7808 39.3125 58.5037 39.3125C57.2265 39.3125 56.1912 38.2772 56.1912 37C56.1912 28.0599 48.9438 20.8125 40.0037 20.8125C31.0635 20.8125 23.8162 28.0599 23.8162 37C23.8162 38.2772 22.7808 39.3125 21.5037 39.3125C20.2265 39.3125 19.1912 38.2772 19.1912 37C19.1912 25.5056 28.5092 16.1875 40.0037 16.1875C51.4981 16.1875 60.8162 25.5056 60.8162 37ZM42.3162 9.25C42.3162 10.5272 41.2808 11.5625 40.0037 11.5625C38.7265 11.5625 37.6912 10.5272 37.6912 9.25V2.3125C37.6912 1.03534 38.7265 0 40.0037 0C41.2808 0 42.3162 1.03534 42.3162 2.3125V9.25ZM61.261 19.013C60.358 19.9161 58.8938 19.9161 57.9907 19.013C57.0876 18.1099 57.0876 16.6457 57.9907 15.7426L62.8963 10.8371C63.7993 9.93397 65.2635 9.93397 66.1666 10.8371C67.0697 11.7401 67.0697 13.2043 66.1666 14.1074L61.261 19.013ZM67.7537 39.3125C66.4765 39.3125 65.4412 38.2772 65.4412 37C65.4412 35.7228 66.4765 34.6875 67.7537 34.6875H74.6912C75.9683 34.6875 77.0037 35.7228 77.0037 37C77.0037 38.2772 75.9683 39.3125 74.6912 39.3125H67.7537ZM12.2537 34.6875C13.5308 34.6875 14.5662 35.7228 14.5662 37C14.5662 38.2772 13.5308 39.3125 12.2537 39.3125H5.31615C4.039 39.3125 3.00365 38.2772 3.00365 37C3.00365 35.7228 4.039 34.6875 5.31615 34.6875H12.2537ZM22.0166 15.7426C22.9197 16.6457 22.9197 18.1099 22.0166 19.013C21.1136 19.9161 19.6494 19.9161 18.7463 19.013L13.8407 14.1074C12.9376 13.2043 12.9376 11.7401 13.8407 10.8371C14.7438 9.93397 16.208 9.93397 17.111 10.8371L22.0166 15.7426Z" fill="#0EC66E"/>
</svg>
