<svg width="85" height="75" viewBox="0 0 85 75" fill="none" xmlns="http://www.w3.org/2000/svg">
<path d="M35.2182 58.0919L51.7907 35.8777C52.9367 34.3791 51.8789 32.2635 49.9395 32.2635H41.7414L44.6504 17.9829C45.0912 15.6028 42.094 14.2805 40.5955 16.2199L24.1111 38.4341C22.9651 39.9327 24.023 42.0483 25.9623 42.0483H34.1604L31.2514 56.3289C30.7225 58.709 33.8078 60.0312 35.2182 58.0919Z" fill="#0EC66E"/>
<path d="M83.6135 34.8199C82.3794 33.5858 80.4401 33.5858 79.2059 34.8199L75.151 38.8749V37.2C75.151 16.6607 58.4903 0 37.951 0C17.4116 0 0.750977 16.6607 0.750977 37.2C0.750977 57.7393 17.4116 74.4 37.951 74.4C48.2647 74.4 58.1377 70.0806 65.1898 62.5877C66.3358 61.3536 66.3358 59.3261 65.0135 58.1801C63.7794 57.0341 61.7519 57.0341 60.6059 58.3564C54.7879 64.6152 46.5017 68.2294 37.951 68.2294C20.8496 68.1412 7.00974 54.2133 7.00974 37.2C7.00974 20.1867 20.8496 6.25877 37.951 6.25877C54.9642 6.25877 68.8922 20.1867 68.8922 37.2V38.8749L64.8372 34.8199C63.6031 33.5858 61.6638 33.5858 60.4296 34.8199C59.1955 36.054 59.1955 37.9934 60.4296 39.2275L69.7737 48.6597C70.3908 49.2768 71.1842 49.5412 71.9775 49.5412C72.7709 49.5412 73.5642 49.2768 74.1813 48.6597L83.5254 39.3156C84.7595 38.0815 84.7595 36.054 83.6135 34.8199Z" fill="#0EC66E"/>
</svg>
