<svg width="74" height="74" viewBox="0 0 74 74" fill="none" xmlns="http://www.w3.org/2000/svg">
<path fill-rule="evenodd" clip-rule="evenodd" d="M40.2338 27.2419V37.9916C40.234 38.342 40.1541 38.6879 40.0004 39.0028C39.8466 39.3177 39.623 39.5933 39.3466 39.8087L33.7004 44.2282C33.4621 44.4191 33.1883 44.5609 32.8949 44.6453C32.6014 44.7297 32.2941 44.7551 31.9908 44.72C31.6875 44.6849 31.3941 44.59 31.1277 44.4408C30.8613 44.2916 30.6271 44.091 30.4387 43.8507C30.2503 43.6104 30.1114 43.3351 30.0301 43.0408C29.9488 42.7464 29.9266 42.4389 29.9649 42.1359C30.0032 41.833 30.1012 41.5407 30.2533 41.2758C30.4053 41.011 30.6083 40.779 30.8506 40.5931L35.6088 36.866V27.2419C35.603 26.9345 35.6585 26.6291 35.7721 26.3435C35.8858 26.0578 36.0552 25.7977 36.2705 25.5783C36.4858 25.3589 36.7427 25.1846 37.0261 25.0656C37.3096 24.9466 37.6139 24.8853 37.9213 24.8853C38.2287 24.8853 38.533 24.9466 38.8165 25.0656C39.0999 25.1846 39.3568 25.3589 39.5721 25.5783C39.7874 25.7977 39.9568 26.0578 40.0705 26.3435C40.1841 26.6291 40.2396 26.9345 40.2338 27.2419ZM37 50.9918C39.7673 50.9919 42.4726 50.1715 44.7736 48.6341C47.0747 47.0968 48.8682 44.9116 49.9273 42.355C50.9864 39.7983 51.2636 36.985 50.7238 34.2708C50.1841 31.5567 48.8515 29.0635 46.8948 27.1066C44.938 25.1498 42.4449 23.8171 39.7308 23.2772C37.0166 22.7372 34.2033 23.0142 31.6466 24.0732C29.0899 25.1322 26.9046 26.9256 25.3672 29.2265C23.8297 31.5275 23.0091 34.2327 23.0091 37C23.0119 40.7098 24.4868 44.2669 27.11 46.8902C29.7332 49.5136 33.2902 50.9887 37 50.9918ZM37 18.3824C33.3178 18.3824 29.7183 19.4743 26.6566 21.5201C23.595 23.5658 21.2087 26.4734 19.7996 29.8754C18.3905 33.2773 18.0218 37.0207 18.7402 40.6321C19.4585 44.2436 21.2317 47.5609 23.8354 50.1646C26.4391 52.7683 29.7564 54.5415 33.3679 55.2598C36.9794 55.9782 40.7227 55.6095 44.1246 54.2004C47.5266 52.7913 50.4342 50.405 52.48 47.3434C54.5257 44.2817 55.6176 40.6822 55.6176 37C55.6115 32.0642 53.648 27.3323 50.1579 23.8421C46.6677 20.352 41.9358 18.3885 37 18.3824ZM69.375 41.1407V32.87L62.3573 31.9022C61.9081 31.8409 61.4868 31.6485 61.1463 31.3492C60.8057 31.0499 60.5609 30.6568 60.4424 30.2191C59.9565 28.4496 59.2693 26.7417 58.3942 25.1288C58.1827 24.7379 58.0881 24.2944 58.1216 23.8512C58.1551 23.408 58.3154 22.9838 58.5833 22.6292L62.8178 17.043L56.9669 11.1822L51.4843 15.3336C51.124 15.6054 50.6921 15.7658 50.2418 15.795C49.7915 15.8243 49.3425 15.721 48.9502 15.4981C47.2986 14.5706 45.5459 13.8359 43.7266 13.3085C43.2966 13.1859 42.9116 12.9411 42.6182 12.6038C42.3247 12.2664 42.1357 11.8511 42.0739 11.4083L41.1374 4.62747H32.8642L31.9277 11.4116C31.8655 11.8544 31.6762 12.2696 31.3827 12.6068C31.0892 12.9441 30.7041 13.189 30.2742 13.3118C28.4548 13.8389 26.7021 14.5736 25.0506 15.5014C24.6585 15.7244 24.2096 15.8276 23.7594 15.7984C23.3092 15.7692 22.8774 15.6087 22.5174 15.3369L17.0332 11.1822L11.1822 17.0397L15.4183 22.6259C15.6859 22.9807 15.8459 23.4049 15.8795 23.848C15.913 24.2911 15.8186 24.7345 15.6074 25.1255C14.7318 26.7383 14.044 28.4463 13.5576 30.2158C13.4404 30.6542 13.1962 31.0481 12.8558 31.3482C12.5154 31.6482 12.0939 31.841 11.6443 31.9022L4.625 32.87V41.1407L11.84 42.1323C12.2766 42.1949 12.6863 42.3806 13.0212 42.6676C13.3561 42.9546 13.6024 43.3311 13.7311 43.7529C14.2397 45.43 14.929 47.0469 15.7867 48.5752C16.0076 48.9678 16.1091 49.4164 16.0785 49.8659C16.048 50.3154 15.8868 50.7461 15.6148 51.1052L11.1748 56.9701L17.0258 62.8252L23.0091 58.2956C23.3624 58.0281 23.7854 57.8683 24.2273 57.8353C24.6693 57.8024 25.1113 57.8977 25.5004 58.1097C26.9915 58.9113 28.5623 59.555 30.1871 60.0304C30.6148 60.1555 30.9975 60.4013 31.2891 60.7383C31.5808 61.0753 31.7691 61.4893 31.8315 61.9306L32.8609 69.375H41.1374L42.166 61.9306C42.2286 61.4894 42.417 61.0755 42.7086 60.7385C43.0003 60.4016 43.3828 60.1557 43.8105 60.0304C45.4372 59.5559 47.0096 58.9122 48.5021 58.1097C48.8922 57.8989 49.3349 57.8051 49.777 57.8399C50.2191 57.8746 50.6418 58.0362 50.9942 58.3054L56.9669 62.8276L62.8178 56.9701L58.3778 51.1052C58.106 50.746 57.9449 50.3153 57.9144 49.8659C57.8839 49.4165 57.9852 48.9679 58.2059 48.5752C59.0665 47.0474 59.7582 45.4304 60.2689 43.7529C60.3977 43.3311 60.6439 42.9546 60.9788 42.6676C61.3137 42.3806 61.7234 42.1949 62.16 42.1323L69.3725 41.1407H69.375ZM72.0061 28.5607L64.454 27.5206C64.0856 26.4105 63.649 25.3242 63.1467 24.2679L67.7232 18.227C68.0606 17.7811 68.2255 17.2283 68.1874 16.6704C68.1493 16.1126 67.9109 15.5873 67.516 15.1914L58.8136 6.48651C58.4177 6.09335 57.8933 5.85607 57.3367 5.81816C56.78 5.78026 56.2284 5.94427 55.7829 6.28013L49.8678 10.7612C48.7617 10.2118 47.622 9.73254 46.4556 9.32647L45.4442 1.99471C45.3666 1.44197 45.092 0.935839 44.671 0.569366C44.25 0.202893 43.7109 0.000713535 43.1527 0H30.8481C30.2904 0.000855249 29.7516 0.202892 29.3308 0.569014C28.91 0.935136 28.6354 1.44077 28.5574 1.99307L27.5444 9.32647C26.3778 9.73269 25.2379 10.2119 24.1314 10.7612L18.218 6.28013C17.7725 5.94427 17.2208 5.78026 16.6641 5.81816C16.1075 5.85607 15.5832 6.09335 15.1873 6.48651L6.48734 15.1914C6.09235 15.5871 5.85369 16.1123 5.81531 16.6702C5.77693 17.228 5.94143 17.7809 6.27849 18.227L10.8533 24.2679C10.3501 25.324 9.91298 26.4103 9.54436 27.5206L1.99636 28.564C1.44254 28.6398 0.935008 28.9139 0.567899 29.3355C0.20079 29.757 -0.000983012 30.2974 3.60113e-06 30.8564V43.1543C-0.000635401 43.7132 0.20126 44.2534 0.568305 44.6749C0.935351 45.0963 1.44268 45.3705 1.99636 45.4467L9.78445 46.5205C10.1496 47.5305 10.5724 48.5188 11.0507 49.4805L6.28178 55.7796C5.94488 56.2258 5.78049 56.7786 5.81887 57.3364C5.85724 57.8942 6.0958 58.4193 6.49063 58.8152L15.1881 67.5135C15.5827 67.909 16.1073 68.1479 16.6647 68.1859C17.2221 68.2238 17.7743 68.0582 18.2188 67.7199L24.6502 62.8564C25.5627 63.2886 26.4978 63.6712 27.4515 64.0026L28.5574 72.0053C28.6332 72.5587 28.9072 73.0658 29.3284 73.4326C29.7496 73.7994 30.2896 74.001 30.8481 74H43.1527C43.7111 74.0011 44.251 73.7997 44.6723 73.4333C45.0936 73.0668 45.3679 72.5601 45.4442 72.0069L46.5476 64.0042C47.5025 63.6739 48.4385 63.2912 49.3514 62.8581L55.7829 67.7215C56.2274 68.0599 56.7796 68.2254 57.337 68.1875C57.8943 68.1495 58.419 67.9106 58.8136 67.5151L67.5143 58.8185C67.9091 58.4225 68.1474 57.8972 68.1855 57.3394C68.2236 56.7816 68.0588 56.2288 67.7215 55.7828L62.9526 49.4838C63.4297 48.5218 63.8519 47.5335 64.2172 46.5238L72.0028 45.45C72.5574 45.3743 73.0655 45.0998 73.4329 44.6775C73.8002 44.2553 74.0018 43.714 74 43.1543V30.8564C74.0012 30.2974 73.7996 29.7571 73.4326 29.3355C73.0657 28.914 72.5582 28.6398 72.0045 28.564L72.0061 28.5607Z" fill="#0EC66E"/>
</svg>
